<svg width="577" height="351" viewBox="0 0 577 351" fill="none" xmlns="http://www.w3.org/2000/svg">
<path fill-rule="evenodd" clip-rule="evenodd" d="M27.244 42.6977C53.5329 86.4259 131.975 139.565 147.427 140.739C196.305 144.452 265.888 152.666 328.036 154.871L329.917 154.936C351.874 155.673 381.679 155.747 419.33 155.155C426.758 148.502 433.689 143.769 440.123 140.957L440.63 140.739C444.075 139.281 452.953 130.005 475.315 120.482C481.467 117.862 499.66 123.718 512.378 119.055L512.999 118.822C523.274 114.899 540.217 104.717 563.827 88.2757C563.684 87.8927 563.538 87.5101 563.388 87.1277C563.945 88.0615 564.495 88.999 565.037 89.9405C565.578 90.8791 607.443 190.847 530.676 268.27C478.329 321.064 339.176 370.804 218.304 342.37C-89.1296 275.937 14.3901 21.3171 27.244 42.6977Z" fill="#64FCD9"/>
<path fill-rule="evenodd" clip-rule="evenodd" d="M543.443 196.669C545.16 193.525 546.543 190.28 549.557 188.225C549.919 187.978 550.645 187.668 550.785 187.807C551.172 188.191 551.554 188.796 551.558 189.317C551.597 194.18 548.433 197.81 546.535 201.917C545.533 204.084 544.104 206.054 542.848 208.101C542.597 208.51 542.287 208.893 541.95 209.235C541.635 209.553 540.976 210.08 540.933 210.037C540.404 209.523 539.734 208.981 539.558 208.324C539.381 207.665 539.636 206.844 539.845 206.137C540.596 203.611 541.371 201.091 542.22 198.597C542.447 197.931 542.971 197.365 543.443 196.669Z" fill="white"/>
<path fill-rule="evenodd" clip-rule="evenodd" d="M542.939 188.773C542.695 190.36 542.691 191.901 542.34 193.359C541.813 195.543 541.16 197.715 540.346 199.808C539.399 202.243 538.291 204.624 537.118 206.961C536.345 208.5 535.384 209.955 534.404 211.376C534.059 211.876 533.402 212.158 532.893 212.548C531.808 213.378 531.536 212.056 531.542 211.76C531.598 209.074 531.459 206.393 532.268 203.729C532.859 201.783 532.81 199.65 533.15 197.618C533.38 196.249 533.818 194.917 534.114 193.557C534.557 191.518 534.933 189.464 535.381 187.427C536.144 183.955 536.949 180.517 540.387 178.512C541.075 178.11 541.394 178.113 542.087 178.564C543.649 179.58 544.307 180.754 543.896 182.655C543.467 184.636 543.303 186.675 542.939 188.773Z" fill="white"/>
<path fill-rule="evenodd" clip-rule="evenodd" d="M464.444 252.924C461.454 247.751 458.457 242.523 453.613 238.851C451.61 237.333 449.137 236.215 446.705 235.552C444.474 234.945 442.083 235.123 439.644 235.559C436.66 236.092 433.782 236.741 431.034 237.961C427.123 239.697 423.821 242.314 421.108 245.569C417.155 250.312 413.926 255.311 416.354 262.008C417.266 264.523 420.475 266.516 423.175 266.08C424.804 265.817 426.516 266.019 428.188 266.076C429.603 266.124 431.022 266.402 432.427 266.335C434.858 266.22 437.275 265.811 439.706 265.72C442.742 265.608 445.787 265.693 448.827 265.693C449.91 265.693 451.019 265.846 452.068 265.66C453.901 265.333 455.805 265.042 457.487 264.301C461.636 262.472 466.155 258.792 464.444 252.924Z" fill="white"/>
<path fill-rule="evenodd" clip-rule="evenodd" d="M202.864 261.974C202.864 261.974 210.016 262.633 219.129 259.037C228.242 255.442 230.513 248.909 230.513 248.909C230.513 248.909 228.557 239.538 226.708 237.339C224.764 235.027 221.116 234.905 219.129 235.843C217.269 236.722 213.449 237.496 210.877 241.543C209.523 243.673 210.319 247.705 208.103 253.959C207.277 256.29 202.864 261.974 202.864 261.974Z" fill="white"/>
<path fill-rule="evenodd" clip-rule="evenodd" d="M104.443 256.087C104.443 256.087 125.509 263.48 136.963 265.765C148.416 268.05 169.482 269.061 169.482 269.061C169.482 269.061 186.527 242.635 192.815 225.626C199.104 208.617 203.797 176.246 203.797 176.246C203.797 176.246 186.344 182.014 180.164 190.908C173.984 199.802 179.125 216.267 169.482 225.626C158.081 236.69 140.501 225.373 125.126 232.574C109.75 239.775 104.443 256.087 104.443 256.087Z" fill="white"/>
<path fill-rule="evenodd" clip-rule="evenodd" d="M177.864 325.628C200.906 327.671 284.298 298.836 302.731 278.969C308.5 272.751 313.774 260.386 308.359 254.318C292 235.984 220.928 211.918 235.002 179.428C239.703 168.577 268.839 160.852 268.839 160.852C268.839 160.852 273.955 158.305 274.657 157.078C275.358 155.85 272.451 154.53 272.451 154.53L302.731 155.035C302.731 155.035 302.338 162.56 298.385 165.57C287.456 173.894 274.657 173.894 272.451 185.892C269.37 202.647 300.045 226.168 316.469 235.184C358.145 258.06 370.794 279.618 516.435 264.892C497.111 276.979 446.23 307.532 370.427 323.331C246.608 349.136 158.974 323.954 177.864 325.628Z" fill="white"/>
<path fill-rule="evenodd" clip-rule="evenodd" d="M384.073 43.5C397.73 55.9043 436.512 114.887 443.562 129.645C443.934 130.424 445.444 135.957 445.444 135.957C445.444 135.957 430.195 138.996 421.593 142.636C412.991 146.275 397.724 155.55 397.724 155.55C397.724 155.55 353.777 155.979 325.06 155.014C270.459 153.18 204.837 152.157 165.943 142.636C157.495 140.567 134.373 124.724 127.726 114.781C120.644 104.188 132.921 89.5457 146.839 75.8297C185.689 37.5415 278.343 -52.5316 384.073 43.5Z" fill="#FFB61D"/>
<path d="M464.135 55.7053C462.022 56.871 458.408 55.7039 456.424 56.7389C452.416 58.8292 448.415 54.7951 444.224 56.2948C441.548 57.2523 438.922 58.1668 436.137 58.4722C434.185 58.6863 432.281 59.9516 430.342 60.0089C427.655 60.0882 425.445 61.4707 423.34 63.2509C421.378 64.9089 419.611 66.9497 417.692 68.6987C417.002 69.3274 416.145 69.81 415.318 69.98C414.09 70.2324 411.086 70.1329 409.835 70.2094C407.641 70.3435 405.448 70.6091 403.254 70.6119C401.058 70.6148 370.319 79.3827 366.795 81.6848C366.539 81.8519 366.256 81.9479 365.986 82.077C366.131 81.8194 366.249 81.524 366.425 81.3101C368.113 79.265 369.616 77.9382 371.553 76.4303C374.115 74.4355 376.964 72.9755 379.796 71.6804C382.028 70.6597 384.415 70.196 386.745 69.5592C388.816 68.9933 390.89 68.4071 392.986 68.0521C395.494 67.627 398.023 67.2899 400.549 67.1924C402.626 67.1122 404.73 67.7293 406.789 67.5145C409.814 67.1991 414.573 66.5934 417.536 65.7439C418.64 65.4275 419.86 64.3453 420.515 63.141C421.814 60.75 423.626 59.2505 425.522 58.2456C427.252 57.3295 429.303 57.453 431.209 57.0877C432.982 56.7477 434.754 56.3889 436.522 55.9984C438.035 55.664 439.587 55.4606 441.039 54.8606C442.965 54.0647 444.795 52.8795 446.699 51.9803C447.702 51.5064 448.832 51.4555 449.807 50.916C452.354 49.5073 491.045 40.0022 494.936 41.6377C498.828 43.2733 492.854 47.6531 491.045 47.4727C489.206 47.2893 487.33 47.6423 485.477 47.8501C483.38 48.0851 481.261 48.2345 479.205 48.7642C477.204 49.2794 475.247 50.1443 473.312 51.0109C471.34 51.8943 469.414 52.954 467.475 53.962C466.409 54.5161 465.36 55.1225 464.135 55.7053Z" fill="white"/>
<path d="M363.665 79.5085C362.796 76.4704 365.293 75.0718 366.822 72.9422C370.216 68.2154 375.007 65.2056 380.214 62.8319C382.473 61.8024 384.755 60.7798 387.114 60.0282C389.949 59.1252 392.876 58.5153 395.763 57.7757C396.167 57.6723 396.561 57.4861 396.969 57.4537C398.064 57.3666 399.119 56.4627 399.284 56.355C399.932 55.9344 400.635 55.2899 400.857 54.584C401.38 52.9183 401.553 51.1457 402.023 49.4598C402.88 46.3879 405.266 44.6497 407.932 43.3583C411.204 41.7727 414.562 40.357 417.927 38.9736C422.161 37.2326 426.447 35.6178 430.696 33.9128C434.657 32.3236 438.524 30.4511 442.581 29.1734C444.565 28.5485 446.886 28.9892 449.054 28.9629C449.134 28.9619 449.215 29.1223 449.296 29.2075C449.153 29.3217 449.028 29.4876 448.866 29.5424C444.523 31.0081 440.151 32.3907 435.84 33.9431C432.866 35.014 429.99 36.353 427.041 37.4994C425.809 37.9786 424.456 38.157 423.241 38.6688C420.695 39.7403 418.221 40.9784 415.687 42.0787C413.824 42.8881 411.863 43.4843 410.034 44.3607C407.557 45.5476 404.957 46.7457 404.143 49.7182C403.84 50.8251 404.268 52.1711 403.848 53.1979C403.262 54.6296 402.417 56.1111 401.287 57.1312C398.958 59.2318 395.981 60.1291 392.951 60.8167C391.105 61.2354 389.32 61.9457 387.463 62.2814C383.721 62.9581 380.284 64.4263 376.987 66.2025C372.434 68.6546 367.979 71.3133 365.504 75.8693C364.833 77.1047 364.553 78.5513 364.077 79.8951C364.026 80.0392 363.862 80.1433 363.75 80.2661C363.75 80.0415 363.749 79.817 363.665 79.5085Z" fill="white"/>
<path d="M360.835 77.8283C360.645 76.9664 360.431 76.185 360.456 75.4113C360.507 73.8146 360.536 72.1929 360.838 70.6327C361.983 64.7186 366.211 61.0066 370.443 57.253C374.002 54.0968 377.673 51.0065 379.842 46.5857C380.687 44.8633 380.573 43.1713 380.528 41.316C380.419 36.9095 378.002 33.8261 374.985 31.2822C371.889 28.6727 368.375 26.5441 364.961 24.3327C360.695 21.5688 357.065 18.2715 354.749 13.6395C353.362 10.8666 354.052 5.35943 356.342 3.24025C356.896 2.72739 357.775 2.32487 358.511 2.31245C359.356 2.29821 359.768 3.05659 359.568 3.95908C359.526 4.14594 359.433 4.42623 359.299 4.47176C357.482 5.0874 355.713 9.74121 356.956 11.5046C357.855 12.7799 358.179 14.5248 359.222 15.6206C361.28 17.7839 363.61 19.7008 365.916 21.6134C369.775 24.8141 373.813 27.8059 377.564 31.1251C380.371 33.6086 382.383 36.8546 383.182 40.5016C383.586 42.3441 383.225 44.5183 382.345 46.4065C380.558 50.2451 377.77 53.208 374.569 55.946C370.782 59.1857 366.594 62.1491 364.184 66.6729C363.103 68.7033 362.371 71.0293 362.02 73.3045C361.747 75.0759 362.322 76.975 362.482 78.8205C362.505 79.0809 362.317 79.3596 362.226 79.6299C362.014 79.4688 361.748 79.346 361.603 79.1383C361.337 78.756 361.143 78.3237 360.835 77.8283Z" fill="white"/>
<path fill-rule="evenodd" clip-rule="evenodd" d="M322.672 108.908V154.625L372.973 156.264H387.54V110.784H391.984L372.673 97.4959C372.673 97.4959 372.673 92.3232 372.257 88.4151C371.268 86.3819 368.283 86.0382 366.35 85.6711C364.416 85.304 361.549 84.8531 361.549 86.3819C361.549 87.9106 361.549 92.3232 361.549 92.3232L348.456 90.3101L322.672 108.908Z" fill="white"/>
<path fill-rule="evenodd" clip-rule="evenodd" d="M364.181 155.977L372.973 156.264L370.373 106.398L364.959 102.424L364.181 155.977Z" fill="#E7EAEE"/>
<path fill-rule="evenodd" clip-rule="evenodd" d="M330.26 186.672C330.635 185.815 331.489 184.816 331.286 184.131C330.867 182.721 330.173 181.126 329.082 180.228C324.286 176.282 319.183 172.872 312.89 171.593C309.559 170.916 306.545 171.312 303.627 172.9C301.461 174.079 301.28 175.88 303.147 177.366C304.154 178.167 305.163 178.966 306.193 179.738C310.573 183.019 315.427 185.335 320.731 186.646C322.736 187.142 324.804 187.491 326.862 187.62C327.918 187.686 329.014 187.12 330.26 186.672Z" fill="white"/>
<path fill-rule="evenodd" clip-rule="evenodd" d="M345.06 92.5418C340.525 92.4262 313.65 112.768 313.05 112.424C312.45 112.081 338.649 92.2925 342.451 89.6508C344.423 88.2802 346.469 88.3534 348.539 89.8152C351.424 91.8522 369.29 103.204 371.696 104.336C374.462 105.638 390.935 109.437 390.079 110.486C389.592 110.763 387.159 110.981 386.42 110.882C386.208 110.854 385.782 111.045 385.759 111.187C385.017 115.6 386.261 151.282 386.433 153.078C386.465 153.412 386.805 153.808 387.112 154.007C388.363 154.819 389.741 154.728 391.172 154.783L391.411 154.794C393.93 154.925 396.21 154.396 398.339 153.293C401.118 151.852 403.774 150.174 406.468 148.572C409.301 146.886 412.1 145.142 414.943 143.474C418.876 141.166 423.165 139.641 427.424 138.106C430.006 137.176 432.748 136.666 435.445 136.091C437.781 135.593 440.153 135.27 442.509 134.871L442.565 134.866L444.874 134.924C444.538 134.223 444.233 133.505 443.861 132.824C442.567 130.455 441.189 128.131 439.959 125.73C438.51 122.901 437.29 119.952 435.779 117.159C432.385 110.884 428.902 104.655 425.4 98.439C422.071 92.5312 418.675 86.6615 415.299 80.7803C414.856 80.0073 414.345 79.2732 413.893 78.5042C413.779 78.3083 413.774 78.0478 413.718 77.817C413.916 77.9664 414.166 78.0787 414.305 78.271C415.98 80.5976 417.727 82.879 419.286 85.2821C423.689 92.0715 428.098 98.8607 432.337 105.753C434.569 109.383 436.458 113.223 438.487 116.976C439.891 119.573 441.303 122.168 442.647 124.796C443.335 126.141 443.881 127.558 444.492 128.943L445.485 131.21C445.982 132.343 446.488 133.471 447.033 134.581C447.15 134.819 447.911 134.975 448.236 134.84C451.891 133.319 455.666 132.001 459.122 130.105C464.623 127.085 469.829 123.531 475.315 120.482C477.838 119.079 480.662 118.055 483.475 117.392C485.406 116.936 487.397 116.596 489.636 117.119C493.268 117.967 496.578 119.547 500.081 120.626C502.458 121.357 504.922 121.442 507.491 121.245C512.42 120.866 516.179 117.983 520.351 115.982C523.114 114.658 525.783 113.134 528.484 111.681C534.492 108.449 540.486 105.191 546.501 101.97C550.127 100.029 553.781 98.1389 557.423 96.2261C557.791 96.0328 558.143 95.7937 558.532 95.6611L558.927 95.5258C559.278 95.4107 559.651 95.316 559.776 95.4403L559.911 95.5769C560.542 96.2406 560.875 96.9482 559.599 97.5871C556.765 99.0055 553.973 100.507 551.175 101.997C547.542 103.932 543.925 105.9 540.29 107.832C536.795 109.69 533.28 111.509 529.785 113.367C526.104 115.325 522.443 117.318 518.763 119.278C516.425 120.524 514.186 122.199 511.688 122.83C509.416 123.404 507.123 124.501 504.488 123.679L504.214 123.587C500.972 122.419 497.451 122.047 494.153 121.006C491.528 120.177 488.865 119.61 486.195 119.822C483.116 120.066 479.982 120.561 477.048 121.499C472.327 123.006 468.336 125.933 464.409 128.915L463.254 129.79C459.909 132.311 456.482 134.717 452.347 135.883C451.281 136.184 450.225 136.528 449.186 136.91C449.107 136.94 437.496 137.286 424.981 141.624C413.1 145.742 400.28 153.862 400.313 153.945C401.183 156.128 457.377 152.217 458.714 152.336C460.364 152.482 462.018 152.579 463.672 152.674C464.286 152.709 464.906 152.649 465.52 152.686C467.118 152.78 468.713 152.915 470.311 153.01C470.925 153.046 471.545 152.986 472.159 153.021C473.813 153.117 475.464 153.251 477.118 153.346C477.732 153.381 478.352 153.321 478.966 153.358C480.564 153.452 482.159 153.586 483.757 153.682C484.315 153.716 484.879 153.661 485.437 153.693C487.092 153.788 488.745 153.915 490.4 154.011C490.957 154.044 491.519 153.996 492.076 154.029C493.786 154.128 495.494 154.257 497.203 154.355C497.762 154.387 498.325 154.333 498.883 154.365C500.537 154.461 502.19 154.59 503.844 154.687C504.402 154.719 504.964 154.669 505.522 154.701C507.232 154.799 508.94 154.929 510.65 155.027C511.208 155.059 511.769 155.032 512.329 155.032C513.749 155.032 515.169 154.997 516.587 155.047C517.272 155.071 517.947 155.304 518.633 155.359C520.396 155.499 522.162 155.599 523.927 155.7C524.43 155.728 524.937 155.679 525.439 155.709C527.149 155.809 528.857 155.935 530.567 156.036C530.943 156.058 531.322 156.049 531.7 156.043L532.078 156.04C533.442 156.04 534.81 155.969 536.167 156.055C538.897 156.229 541.62 156.522 544.349 156.702C546.783 156.862 549.223 156.929 551.659 157.05C553.705 157.152 555.749 157.28 557.795 157.382L560.719 157.531C562.181 157.605 563.643 157.672 565.106 157.71C567.843 157.782 570.583 157.773 573.321 157.819C573.481 157.822 573.766 157.997 573.776 158.111C573.851 158.931 573.871 159.757 573.908 160.58C573.473 160.523 573.039 160.435 572.602 160.414C570.147 160.291 567.687 160.235 565.235 160.057C563.175 159.908 561.129 159.533 559.069 159.426C556.908 159.313 554.737 159.419 552.57 159.385C552.111 159.378 551.661 159.122 551.196 159.074L548.197 158.747C546.864 158.606 545.529 158.48 544.192 158.417C541.807 158.305 539.411 158.43 537.022 158.373C536.125 158.352 535.238 158.071 534.339 157.982C533.627 157.912 532.902 157.98 532.186 157.939C531.405 157.895 530.629 157.79 529.85 157.721C527.291 157.495 524.736 157.178 522.173 157.074C519.395 156.961 516.607 157.088 513.826 157.029C512.707 157.005 511.593 156.756 510.475 156.62C509.726 156.529 508.976 156.439 508.223 156.38C506.627 156.255 505.03 156.142 503.432 156.045C502.874 156.012 502.311 156.066 501.753 156.035C499.931 155.936 498.112 155.773 496.289 155.722C495.373 155.697 494.449 155.939 493.531 155.923C492.028 155.896 490.527 155.735 489.023 155.672C488.043 155.632 487.057 155.71 486.078 155.655C484.349 155.558 482.626 155.371 480.897 155.278C479.846 155.222 478.788 155.291 477.734 155.265C476.943 155.245 476.152 155.112 475.362 155.127C474.866 155.136 474.373 155.323 473.878 155.431C474.158 155.669 474.434 155.911 474.718 156.143C477.772 158.639 480.802 161.165 483.889 163.62C487.375 166.392 490.933 169.073 494.422 171.841C497.468 174.257 500.457 176.744 503.48 179.189C504.481 179.999 505.509 180.777 506.526 181.567C507.146 182.049 507.063 182.306 506.401 182.564L506.303 182.601C504.064 183.41 501.889 184.427 499.611 185.089C497.587 185.677 495.453 185.877 493.376 186.29C491.535 186.655 489.718 187.148 487.868 187.448C486.697 187.638 485.483 187.551 484.292 187.635C483.197 187.712 482.099 187.809 481.015 187.973C479.372 188.222 477.749 188.614 476.101 188.802C474.696 188.963 473.266 188.895 471.849 188.98C470.642 189.052 469.432 189.149 468.236 189.318C466.482 189.566 464.748 189.965 462.989 190.152C461.47 190.314 459.925 190.213 458.399 190.331C456.774 190.456 455.162 190.742 453.538 190.882C451.378 191.068 449.211 191.165 447.05 191.334C446.475 191.379 445.914 191.617 445.34 191.648C442.773 191.787 440.203 191.865 437.636 192.006C436.783 192.053 435.939 192.266 435.086 192.323C432.987 192.462 430.886 192.611 428.783 192.657C422.483 192.798 416.181 192.937 409.879 192.982C407.239 193.001 404.59 192.62 401.956 192.716C399.657 192.8 397.423 192.728 395.138 192.397C393.015 192.09 390.807 192.438 388.649 192.299C386.886 192.185 385.146 191.751 383.388 191.507C381.296 191.217 379.194 190.996 377.103 190.692C376.838 190.654 376.376 190.205 376.414 190.106L376.762 189.22C377.871 186.422 379.094 183.691 381.074 181.328C383.514 178.417 386.412 176.12 389.674 174.254L390.121 174.002C391.319 173.338 392.502 172.633 393.748 172.074L395.62 171.228C397.079 170.574 398.55 169.946 400.068 169.485C402.511 168.744 405.061 168.358 407.56 167.797C408.974 167.479 410.368 167.056 411.792 166.794C413.905 166.405 416.042 166.149 418.158 165.774C419.747 165.493 421.33 165.156 422.896 164.766C424.972 164.249 427.047 163.711 429.093 163.085C433.368 161.777 437.559 160.262 441.193 157.543C441.384 157.4 441.608 157.302 441.817 157.183C441.546 157.026 441.291 156.816 440.999 156.728C440.742 156.651 440.444 156.712 440.164 156.712L436.692 156.716C436.113 156.715 435.534 156.714 434.956 156.711L406.883 156.538C397.525 156.482 388.168 156.43 378.81 156.394C374.992 156.38 371.174 156.699 367.356 156.688C362.138 156.673 356.92 156.501 351.702 156.372C348.108 156.283 344.515 156.098 340.92 156.063C339.12 156.045 337.316 156.373 335.515 156.354C331.472 156.312 327.431 156.166 323.389 156.035C320.747 155.949 318.106 155.74 315.463 155.728C313.382 155.719 311.3 156.006 309.218 156.016C307.529 156.024 305.838 155.745 304.15 155.762C303.798 155.766 303.072 156.685 303.165 156.892C304.286 159.391 302.915 161.389 301.707 163.193C299.324 166.754 295.906 169.01 291.757 170.252C289.365 170.968 287.044 171.925 284.714 172.842L283.839 173.183C279.356 174.917 275.77 177.617 274.451 182.501C273.784 184.972 273.381 187.427 273.757 190.103C274.585 196.008 277.485 200.718 281.323 204.986L281.606 205.298C283.7 207.589 285.74 209.956 288.042 212.025C292.738 216.248 297.476 220.443 302.419 224.37C307.251 228.208 312.245 231.872 317.382 235.289C321.811 238.236 326.512 240.781 331.149 243.402C334.132 245.087 337.179 246.673 340.272 248.147C342.869 249.384 345.588 250.364 348.228 251.515C350.563 252.532 352.819 253.74 355.188 254.663C358.462 255.939 361.79 257.088 365.133 258.176C368.151 259.159 371.201 260.062 374.273 260.86C376.902 261.543 379.591 261.991 382.238 262.608C385.656 263.404 389.046 264.318 392.471 265.08C395.07 265.658 397.697 266.115 400.324 266.556C402.694 266.954 405.076 267.287 407.459 267.594C409.528 267.861 411.602 268.092 413.681 268.264C415.684 268.429 417.7 268.457 419.703 268.623C421.762 268.794 423.81 269.102 425.87 269.265C426.845 269.342 427.836 269.192 428.82 269.197C431.011 269.208 433.203 269.22 435.392 269.296C436.748 269.342 438.099 269.588 439.454 269.604C443.261 269.648 447.07 269.62 450.878 269.62C452.746 269.62 454.618 269.707 456.479 269.596C458.521 269.475 460.596 268.802 462.575 269.042C464.987 269.335 467.243 268.981 469.566 268.638C470.626 268.481 471.736 268.696 472.81 268.595C475.906 268.305 478.989 267.87 482.088 267.624C484.779 267.411 487.489 267.433 490.183 267.245C491.574 267.148 492.944 266.776 494.334 266.607C495.719 266.44 497.122 266.416 498.507 266.247C499.968 266.068 501.43 265.855 502.867 265.544C505.721 264.927 508.582 264.319 511.395 263.542C513.454 262.974 515.438 262.139 517.461 261.437C517.586 261.394 517.831 261.425 517.884 261.508C517.954 261.617 517.954 261.877 517.871 261.962C516.658 263.203 515.495 264.511 514.164 265.612C513.764 265.943 513.138 266.038 512.533 266.101L512 266.155C510.271 266.344 508.516 266.353 506.801 266.623C505.061 266.898 503.372 267.495 501.632 267.773C499.867 268.054 498.067 268.106 496.284 268.28C495.413 268.365 494.543 268.481 493.677 268.615C491.592 268.94 489.517 269.34 487.425 269.604C485.116 269.895 482.791 270.052 480.476 270.298C479.126 270.441 477.787 270.692 476.436 270.81C474.171 271.009 471.898 271.126 469.632 271.309C469.001 271.36 468.384 271.567 467.753 271.628L465.252 271.874C463.585 272.036 461.916 272.189 460.245 272.289C458.552 272.39 456.846 272.271 455.148 272.316C451.89 272.401 448.632 272.625 445.374 272.619C441.649 272.613 437.922 272.472 434.2 272.291C431.357 272.152 428.525 271.8 425.682 271.656C423.633 271.552 421.569 271.722 419.521 271.609C417.851 271.517 416.198 271.153 414.53 270.974C413.031 270.813 411.522 270.755 410.019 270.622C409.092 270.54 408.161 270.448 407.246 270.28C406.146 270.078 405.063 269.78 403.968 269.545C402.97 269.331 401.97 269.122 400.964 268.953C399.126 268.643 397.287 268.334 395.441 268.081C393.943 267.876 392.421 267.83 390.935 267.57C389.69 267.352 388.481 266.925 387.254 266.596L381.436 265.034C380.466 264.775 379.495 264.518 378.524 264.264C375.824 263.558 373.082 262.996 370.421 262.17C366.492 260.951 362.619 259.555 358.722 258.235C355.676 257.204 352.596 256.258 349.591 255.117L348.281 254.617C346.097 253.776 343.922 252.883 341.886 251.76L334.96 247.952C329.189 244.774 323.441 241.554 317.857 238.074C311.958 234.399 306.477 230.045 300.876 225.904C294.687 221.328 289.279 215.872 283.987 210.327L283.175 209.47C279.406 205.458 275.888 201.213 273.536 196.163L273.288 195.619C272.442 193.714 271.305 191.709 271.256 189.727C271.147 185.288 271.972 181.014 275.293 177.539C277.926 174.784 281.116 172.969 284.389 171.258L286.531 170.148C290.367 168.157 294.238 166.222 297.971 164.051C299.296 163.28 300.455 162.021 301.335 160.741C302.298 159.339 301.465 157.459 299.768 157.084C296.852 156.441 293.904 155.858 290.939 155.547C286.848 155.119 282.729 154.952 278.619 154.721C278.262 154.701 277.704 154.939 277.546 155.226C275.358 159.198 271.93 161.664 267.754 163.06C264.518 164.141 261.15 164.823 257.879 165.807C255.432 166.542 253.088 167.637 250.622 168.281C247.317 169.143 244.434 170.832 241.883 172.903L241.154 173.504C238.016 176.136 235.212 179.134 234.428 183.501C233.843 186.756 234.007 189.837 234.98 193.087C236.392 197.799 239.298 201.366 242.494 204.822C244.09 206.548 245.787 208.182 247.476 209.819C252.696 214.876 258.341 219.399 264.248 223.645C271.211 228.649 278.562 232.924 286.173 236.846L287.966 237.762C292.355 239.996 296.769 242.225 300.618 245.407C303.706 247.96 306.511 250.764 308.359 254.318L308.967 255.491C309.93 257.377 310.838 259.383 310.893 261.341L310.923 262.473C310.962 264.253 310.932 266.117 310.384 267.995C308.469 274.546 304.208 279.342 299.44 283.758C294.554 288.283 289.095 292.093 283.251 295.326C280.87 296.644 278.588 298.156 276.146 299.343C273.809 300.479 271.312 301.281 268.906 302.279C266.15 303.424 263.468 304.77 260.66 305.764C256.679 307.172 252.609 308.326 248.584 309.612C246.013 310.433 243.476 311.372 240.884 312.12C237.705 313.038 234.476 313.782 231.285 314.659C229.196 315.233 227.154 315.984 225.057 316.524C222.43 317.201 219.76 317.713 217.122 318.353C214.582 318.969 212.074 319.721 209.526 320.297C206.303 321.026 203.057 321.655 199.814 322.294C196.924 322.863 194.027 323.398 191.128 323.925C188.553 324.393 185.972 324.827 183.394 325.281C182.699 325.404 182.004 325.653 181.318 325.626C181.025 325.615 180.779 325.016 180.466 324.736C180.023 324.34 179.538 323.991 179.072 323.621C179.717 323.543 180.371 323.508 181.006 323.377C183.118 322.941 185.217 322.433 187.334 322.023C189.817 321.542 192.324 321.184 194.801 320.68C196.594 320.316 198.346 319.748 200.136 319.366C202.48 318.865 204.857 318.513 207.195 317.99C208.905 317.607 210.566 317.013 212.267 316.584C213.51 316.269 214.799 316.131 216.038 315.804C218.103 315.26 220.131 314.577 222.199 314.046C224.268 313.515 226.381 313.154 228.448 312.617C230.614 312.054 232.736 311.323 234.901 310.752C237.383 310.097 239.907 309.595 242.382 308.913C243.842 308.512 245.222 307.827 246.673 307.383C249.165 306.622 251.719 306.052 254.184 305.215C257.763 303.998 261.29 302.628 264.83 301.299L267.238 300.394C268.842 299.789 270.442 299.172 272.022 298.508C279.743 295.262 287.065 291.31 293.572 285.983L295.116 284.717C297.173 283.023 299.208 281.299 301.091 279.426C303.81 276.722 306.167 273.65 307.494 270.004C308.271 267.867 308.953 265.572 309.011 263.331C309.066 261.235 308.463 259.137 307.647 257.029C306.469 253.991 304.723 251.514 302.305 249.646C299.022 247.111 295.464 244.906 291.903 242.76C283.936 237.959 275.715 233.557 267.945 228.462C262.72 225.036 257.946 220.906 253.099 216.92L252.189 216.174C249.009 213.579 245.874 210.889 243.001 207.965C239.031 203.924 235.267 199.717 233.101 194.276C232.029 191.582 231.679 188.977 231.797 186.143C232.059 179.875 235.622 175.644 240.065 171.783C244.293 168.11 249.284 166.06 254.514 164.458C257.74 163.47 261.027 162.689 264.265 161.741C267.059 160.922 269.857 160.093 272.578 159.068C273.421 158.75 274.363 157.9 274.657 157.078C275.269 155.364 274.31 154.536 272.451 154.53C270.918 154.525 269.389 154.162 267.852 154.035C265.959 153.877 264.054 153.865 262.166 153.669C260.457 153.491 258.772 153.069 257.062 152.903C255.325 152.734 253.57 152.756 251.824 152.67C251.518 152.655 251.221 152.474 250.913 152.45C248.864 152.291 246.808 152.2 244.764 151.993C242.938 151.809 241.13 151.446 239.304 151.268C237.628 151.105 235.938 151.085 234.254 150.998C234.039 150.987 233.825 150.953 233.61 150.933C231.471 150.731 229.327 150.569 227.194 150.315C225.377 150.099 223.581 149.706 221.762 149.525C220.135 149.362 218.489 149.385 216.852 149.315C216.59 149.303 216.331 149.21 216.068 149.187C213.92 149.003 211.768 148.857 209.624 148.638C207.9 148.461 206.19 148.156 204.466 147.988C202.743 147.82 201.009 147.767 199.283 147.628C198.875 147.595 198.484 147.343 198.077 147.315C196.07 147.177 194.054 147.15 192.055 146.946C190.294 146.767 188.558 146.327 186.797 146.149C185.168 145.985 183.519 146.032 181.881 145.945C181.531 145.927 181.194 145.659 180.843 145.636C178.78 145.498 176.714 145.412 174.652 145.279C174.03 145.239 173.417 145.071 172.796 145.032C172.667 145.024 172.519 145.325 172.379 145.483L172.676 145.581C172.725 145.596 172.775 145.61 172.826 145.621C174.556 146.001 176.301 146.322 178.013 146.767C180.048 147.296 182.087 147.837 184.067 148.535C191.062 151.002 197.655 154.236 202.391 160.155C204.183 162.394 205.338 165.176 206.585 167.804C207.239 169.182 207.726 170.745 207.824 172.255C207.977 174.613 207.742 176.997 207.657 179.369C207.603 180.886 207.603 182.411 207.43 183.915C207.262 185.37 206.92 186.806 206.623 188.244L205.806 192.207C205.396 194.188 204.977 196.168 204.522 198.139C204.164 199.689 203.543 201.176 203.148 202.72C202.744 204.297 202.519 205.92 202.129 207.502C201.679 209.329 201.111 211.126 200.636 212.947C200.115 214.945 199.687 216.968 199.134 218.957L198.808 220.122C198.476 221.287 198.122 222.447 197.677 223.566L197.448 224.123C197.13 224.86 197.251 224.891 197.763 224.926L197.928 224.937C200.981 225.155 204.056 225.246 207.076 225.698C209.319 226.034 211.492 226.846 213.692 227.459C215.449 227.949 217.201 228.458 218.955 228.961C219.104 229.004 219.246 229.069 219.392 229.123C219.25 229.181 219.109 229.287 218.967 229.288C217.584 229.3 216.189 229.415 214.822 229.268C212.579 229.027 210.332 228.719 208.131 228.237C206.555 227.892 205.071 227.142 203.505 226.72C202.758 226.518 201.907 226.565 201.124 226.666L200.017 226.807C198.723 226.975 197.429 227.163 196.185 227.514C194.139 228.092 193.144 229.808 192.236 231.515L191.936 232.082C189.345 236.949 186.853 241.869 184.291 246.752C181.413 252.236 178.498 257.701 175.603 263.176L175.37 263.631C174.34 265.694 173.536 267.93 171.327 269.111C170.861 269.36 170.195 269.236 169.621 269.283C169.675 268.852 169.603 268.349 169.801 267.999C171.908 264.275 174.064 260.578 176.195 256.867C178.144 253.475 180.161 250.119 181.999 246.668C184.805 241.399 187.605 236.119 190.176 230.734C192.152 226.594 193.814 222.302 195.537 218.046L196.621 215.377C197.883 212.262 199.126 209.138 200.199 205.959C201.437 202.291 202.345 198.509 203.341 194.763C203.934 192.533 204.608 190.299 204.903 188.023L205.101 186.493C205.527 183.176 205.916 179.834 205.854 176.514C205.8 173.618 205.222 170.592 204.194 167.882C201.979 162.041 197.88 157.603 192.542 154.374C189.027 152.249 185.354 150.48 181.276 149.61C178.995 149.124 176.812 148.182 174.533 147.685C172.614 147.266 170.622 147.034 168.658 147.005C165.887 146.966 163.113 147.222 160.339 147.293C158.286 147.345 156.226 147.225 154.177 147.333C152.954 147.397 151.746 147.751 150.532 147.975C148.709 148.311 146.862 148.55 145.069 149.004C141.343 149.945 137.558 150.756 133.954 152.055C124.688 155.397 115.997 159.943 107.921 165.577C102.449 169.393 97.3415 173.693 92.8304 178.63C87.9797 183.939 83.8115 189.744 80.9778 196.396C79.8764 198.981 79.0014 201.674 78.1932 204.369C77.6203 206.279 77.0909 208.262 76.9782 210.237C76.8368 212.715 77.1596 215.219 77.2456 217.713C77.2893 218.982 77.166 220.261 77.2785 221.522C77.3847 222.71 77.6116 223.906 77.9468 225.051C78.4221 226.674 79.0275 228.261 79.6085 229.852C82.8098 238.619 88.2891 245.44 96.7631 249.598C98.6817 250.54 100.758 251.23 102.833 251.759C104.232 252.115 105.497 251.712 106.333 250.163C109.624 244.065 113.942 238.813 119.802 235.01C122.776 233.08 125.908 231.389 128.997 229.64C131.572 228.182 134.384 227.429 137.289 226.92C139.072 226.608 140.798 225.839 142.583 225.694C144.602 225.53 146.659 225.835 148.699 225.934L149.203 225.936C152.312 226.047 155.429 226.343 158.528 226.217C161.351 226.102 164.076 225.568 166.811 224.413C170.755 222.748 172.751 219.923 173.758 216.106L174.387 213.619C174.757 212.147 175.107 210.671 175.331 209.177C175.574 207.555 175.242 205.849 175.461 204.22C175.767 201.944 176.206 199.663 176.853 197.462C177.342 195.797 178.163 194.232 178.844 192.62L179.065 192.081C180.46 188.562 182.864 185.719 185.49 183.147C188.594 180.107 192.135 177.58 196.36 176.19C198.015 175.646 199.617 174.943 201.264 174.372C201.513 174.286 201.876 174.528 202.186 174.618L201.822 174.859C201.761 174.898 201.699 174.937 201.637 174.973L200.523 175.622C194.776 178.98 189.123 182.478 184.694 187.584L184.252 188.097C182.561 190.069 180.968 192.122 180.322 194.783C179.882 196.599 178.879 198.298 178.576 200.123C178.176 202.542 178.227 205.033 178.053 207.491C178.016 208.01 177.801 208.514 177.734 209.034C177.476 211.042 177.537 213.145 176.944 215.046C175.678 219.106 173.562 222.727 169.709 224.894C167.626 226.066 165.435 227.222 163.146 227.801C161.1 228.319 158.888 228.249 156.732 228.265L156.271 228.27C152.108 228.332 147.943 228.254 143.78 228.296C138.363 228.349 133.025 229.137 128.114 231.438C122.385 234.122 117.281 237.725 113.27 242.784C110.662 246.074 108.299 249.466 107.043 253.487C106.517 255.173 105.114 254.838 104.252 254.683L103.364 254.52C101.287 254.126 99.1842 253.622 97.3299 252.697C94.3565 251.214 91.4456 249.451 88.8674 247.363C84.3818 243.731 80.6824 239.306 78.4463 233.935C76.9976 230.456 75.7938 226.807 75.0627 223.118C74.556 220.561 74.981 217.834 74.8917 215.179L74.8666 214.649C74.7054 212.054 75.1369 209.579 75.756 207.108L75.8742 206.645C76.6927 203.489 77.1939 200.21 78.3811 197.202C79.4749 194.43 81.129 191.873 82.6508 189.276L82.9746 188.719C86.0984 183.296 90.0863 178.53 94.5742 174.214C100.383 168.628 106.838 163.855 113.771 159.743L116.597 158.061C118.484 156.944 120.383 155.848 122.338 154.865C124.551 153.752 126.888 152.88 129.206 151.983L129.978 151.683C131.988 150.896 134.017 150.144 136.074 149.493C138.921 148.593 141.792 147.766 144.672 146.98C146.695 146.428 148.731 145.883 150.795 145.538C153.305 145.119 155.854 144.948 158.378 144.604C160.44 144.322 162.489 143.945 164.542 143.602C164.682 143.579 164.811 143.486 164.944 143.425C164.798 143.374 164.647 143.269 164.505 143.279C163.094 143.377 161.682 143.613 160.276 143.58C157.929 143.525 155.585 143.307 153.241 143.142C152.764 143.108 152.292 142.948 151.817 142.944C149.221 142.924 146.625 142.973 144.031 142.92C142.507 142.889 140.988 142.646 139.465 142.613C136.927 142.56 134.386 142.638 131.847 142.584C130.324 142.552 128.805 142.31 127.281 142.277C125.296 142.234 123.309 142.251 121.322 142.259L119.831 142.263C117.348 142.263 114.861 142.349 112.382 142.236C110.285 142.141 108.203 141.723 106.105 141.624C104.76 141.56 103.397 141.928 102.046 141.902C99.6368 141.854 97.2315 141.618 94.822 141.532C93.3945 141.48 91.9594 141.63 90.5327 141.57C88.1318 141.47 85.7345 141.281 83.3366 141.116C82.8581 141.083 82.3844 140.931 81.9079 140.928C78.9766 140.91 76.0444 140.955 73.1138 140.904C71.5906 140.877 70.0715 140.629 68.5481 140.597C65.9537 140.544 63.3575 140.582 60.7621 140.582L55.4592 140.583C54.5754 140.584 53.6916 140.586 52.8078 140.59C52.5583 140.591 52.3094 140.701 52.0602 140.76L52.524 140.994C52.6008 141.034 52.677 141.075 52.7519 141.118C58.1214 144.211 62.9936 147.942 67.1739 152.529C69.9715 155.599 72.5283 158.859 74.0588 162.778C74.7753 164.613 75.4848 166.474 75.9239 168.385C76.1898 169.543 75.8174 170.832 75.9374 172.042C76.096 173.641 75.8012 175.135 75.2278 176.583C73.4598 181.046 70.4572 184.434 66.3805 186.983C63.624 188.707 60.7363 190.059 57.5626 190.641C55.0844 191.095 52.5513 191.335 50.0323 191.457C47.7847 191.565 45.5092 191.513 43.2717 191.283C41.3601 191.086 39.4933 190.488 37.5917 190.153C35.557 189.794 33.4974 189.576 31.463 189.217C30.1599 188.986 28.8928 188.555 27.5915 188.311C24.8583 187.797 22.1051 187.388 19.3766 186.852C18.0372 186.588 16.7391 186.12 15.4136 185.778L14.7412 185.603C14.2913 185.489 13.8383 185.384 13.3833 185.329L13.0417 185.298C11.9337 185.229 11.276 184.28 11.7455 183.223C11.7679 183.172 12.0715 183.22 12.2334 183.263C13.6129 183.627 14.9868 184.013 16.3683 184.369L19.7386 185.238C20.8628 185.524 21.9883 185.805 23.1173 186.071C25.9141 186.731 28.7151 187.379 31.531 187.949C33.2239 188.291 34.9319 188.568 36.6428 188.815L39.0112 189.147C40.578 189.366 42.1496 189.567 43.7223 189.606C45.8752 189.66 48.0344 189.387 50.1928 189.318C51.8537 189.265 53.523 189.389 55.1782 189.279C56.2908 189.205 57.4352 188.994 58.4778 188.608C60.9761 187.684 63.4608 186.702 65.8805 185.59C68.8268 184.236 70.9932 181.843 73.0346 179.446C73.7508 178.606 73.7698 177.056 73.7955 175.823C73.8019 175.514 72.6355 175.048 71.9525 174.881C68.9734 174.152 65.9527 173.587 62.9885 172.806C60.6334 172.186 58.35 171.299 56.0127 170.604C54.2842 170.09 52.5081 169.738 50.7751 169.238C48.1716 168.486 46.6238 166.29 46.8261 163.758C46.829 163.721 46.7117 163.67 46.7184 163.641C47.1101 161.939 46.3215 161.536 44.2498 161.94C42.4094 162.298 40.4933 162.26 38.6139 162.432C37.6372 162.522 36.6558 162.631 35.697 162.83C33.3817 163.312 31.0954 164.154 28.7657 164.285C26.263 164.424 23.7259 163.837 21.7001 162.127C19.6077 160.36 17.5886 158.506 15.5559 156.67C14.0415 155.302 12.554 153.905 11.0612 152.513C10.8287 152.296 10.6324 152.04 10.4193 151.803C10.8345 151.795 11.3861 151.609 11.643 151.807C13.3858 153.147 15.2654 154.389 16.7202 156.005L17.7957 157.201C19.5968 159.182 21.4853 161.04 24.1164 161.781C26.2046 162.368 28.5017 162.436 30.6936 162.367C32.768 162.301 34.8445 161.833 36.8872 161.39C38.1749 161.11 39.4598 160.723 40.6818 160.222L41.137 160.028C43.4704 159.002 46.1252 159.181 47.9448 160.932L48.5658 161.562C49.1682 162.184 49.7642 162.919 49.5775 163.949L49.5414 164.114C49.4733 164.38 49.505 164.697 49.3715 164.918L49.0353 165.483C48.4722 166.463 48.5906 166.608 49.8399 167.001L50.249 167.127C52.8357 167.919 55.4078 168.768 58.0208 169.462C60.8789 170.222 63.7924 170.773 66.6513 171.53C68.6718 172.064 70.6452 172.78 72.6326 173.436C73.4518 173.707 74.4842 172.749 74.5508 171.51C74.6159 170.299 74.7889 169.028 74.5114 167.88C74.1169 166.25 73.5828 164.566 72.7085 163.153C68.9914 157.143 64.6846 151.56 59.4136 146.83C56.146 143.897 46.3055 138.465 38.5876 136.843C30.8697 135.222 18.7338 136.137 16.3683 137.513C14.0029 138.89 10.4509 140.475 8.87304 140.894C8.73681 140.93 8.42354 140.76 8.38362 140.628C7.9337 139.14 9.03186 138.441 10.0284 137.925C12.3801 136.708 14.7898 135.593 17.2244 134.549C20.4333 133.173 23.9267 132.995 27.3193 132.612C29.1624 132.404 31.1215 133.121 33.015 133.489C34.8845 133.852 36.7615 134.218 38.5876 134.747C39.5723 135.033 40.4608 135.656 41.3869 136.137C45.0656 138.05 48.6105 137.966 52.151 135.671C53.2704 134.945 54.7244 134.759 55.9368 134.15C61.2402 131.484 66.5158 128.763 71.7925 126.045C76.9326 123.397 82.0614 120.727 87.1963 118.069C87.8492 117.731 88.5243 117.432 89.1511 117.052C89.2545 116.989 89.2605 116.474 89.1434 116.382C86.7 114.462 84.2596 112.535 81.7637 110.683C76.758 106.969 71.6455 103.395 66.7236 99.5745C64.038 97.4898 61.5068 95.1573 59.1613 92.6934C53.9964 87.2677 49.0931 81.5918 43.8947 76.1996C39.3392 71.4743 34.5718 66.9483 29.7634 62.479C29.2376 61.9904 27.4279 62.0413 26.8874 62.5533C24.2834 65.0193 21.9087 67.7277 19.458 70.3551C19.2009 70.6308 19.0001 70.9604 18.7338 71.2252C18.5791 71.3791 18.3456 71.4536 18.1476 71.5639C18.1355 71.3449 18.0767 71.1165 18.1187 70.9084C18.4412 69.3087 18.4728 67.5485 19.207 66.1624C19.9361 64.7859 25.2845 59.2094 27.9891 59.2094C30.6936 59.2094 54.786 84.4092 54.786 84.4092C58.4425 88.3877 62.1304 92.3373 65.9819 96.1181C71.9335 101.96 78.2976 107.375 85.2181 112.081C88.4624 114.287 92.0886 115.343 95.9762 114.986C97.8324 114.816 99.6062 113.87 101.465 113.568C103.25 113.278 105.097 113.377 106.915 113.284C109.218 113.166 111.382 113.798 113.589 114.335C116.253 114.983 118.785 115.902 121.267 117.047C127.544 119.942 132.912 124.232 138.571 128.091C143.082 131.167 147.673 134.155 152.421 136.843C155.06 138.337 158.036 139.327 160.965 140.188C163.461 140.921 166.109 141.133 168.685 141.596C169.477 141.739 170.25 141.982 171.042 142.123L173.718 142.602C175.057 142.839 176.397 143.066 177.742 143.258C180.453 143.646 183.176 143.953 185.897 144.276C188.838 144.625 191.781 144.956 194.725 145.285C196.797 145.518 198.872 145.733 200.946 145.96C202.964 146.181 204.977 146.475 207 146.614C209.639 146.795 212.29 146.8 214.928 146.988C216.487 147.099 218.025 147.479 219.583 147.623C221.529 147.802 223.487 147.848 225.437 147.987C225.845 148.016 226.237 148.273 226.644 148.299C228.818 148.437 231.005 148.447 233.169 148.674C235.137 148.88 237.07 149.438 239.039 149.601C241.077 149.77 243.14 149.632 245.192 149.67C245.595 149.678 245.991 149.957 246.398 149.979C248.965 150.116 251.534 150.203 254.101 150.34C254.508 150.362 254.899 150.608 255.308 150.654C257.472 150.898 259.635 151.203 261.808 151.31C264.081 151.423 266.364 151.316 268.642 151.351C269.157 151.359 269.665 151.611 270.184 151.663C272.629 151.907 275.073 152.218 277.524 152.318C280.302 152.431 283.089 152.321 285.871 152.359C286.61 152.369 287.343 152.611 288.085 152.672L291.624 152.965C293.394 153.108 295.165 153.24 296.937 153.333C298.799 153.432 300.672 153.313 302.538 153.36C305.704 153.441 308.868 153.602 312.034 153.679C314.068 153.728 316.107 153.741 318.137 153.639C318.507 153.62 319.134 152.972 319.144 152.601C319.176 151.419 319.964 113.74 319.886 112.608C319.872 112.402 320.067 112.181 320.165 111.966C320.291 112.154 320.51 112.333 320.527 112.53C320.665 114.144 321.439 150.403 321.443 153.333C321.443 153.452 322.067 153.683 322.392 153.668C323.804 153.602 366.633 153.869 368.64 153.733C369.437 153.679 370.048 153.446 369.956 152.391C369.785 150.426 369.933 106.398 369.933 106.398C369.933 106.398 351.009 92.6934 345.06 92.5418ZM454.904 155.1C452.819 155.369 450.825 156.448 448.745 156.624C446.063 156.851 443.904 158.229 441.59 159.223C437.911 160.804 434.403 162.781 430.738 164.397C429.133 165.105 427.311 165.313 425.601 165.796C424.839 166.011 422.939 166.457 422.839 166.474L420.579 166.848C419.45 167.038 418.323 167.239 417.204 167.477C414.413 168.069 411.634 168.715 408.86 169.381C406.568 169.93 404.294 170.56 402.002 171.107L400.624 171.425C396.478 172.34 392.61 173.942 389.067 176.228C385.02 178.84 381.47 181.996 379.331 186.463C378.535 188.125 378.958 189.091 380.616 189.309C381.11 189.374 381.6 189.462 382.093 189.531C383.17 189.683 384.243 189.877 385.326 189.969C387.106 190.12 388.893 190.197 390.676 190.318C392.198 190.42 393.718 190.591 395.241 190.638C397.051 190.695 398.864 190.617 400.674 190.659C404.548 190.748 408.421 190.931 412.295 190.965C414.319 190.982 416.344 190.699 418.371 190.666C421.693 190.612 425.017 190.695 428.34 190.639C430.138 190.608 431.936 190.543 433.734 190.468L437.329 190.311C439.375 190.223 441.422 190.134 443.463 189.968C445.577 189.796 447.686 189.543 449.794 189.299C450.258 189.245 450.705 189.011 451.168 188.984C453.51 188.845 455.856 188.761 458.198 188.623C458.605 188.599 459 188.325 459.404 188.315C461.007 188.272 462.624 188.413 464.211 188.246C465.846 188.074 467.438 187.494 469.073 187.322C471.364 187.081 473.682 187.101 475.98 186.914C477.504 186.79 479.014 186.495 480.532 186.285C481.612 186.135 482.703 186.053 483.771 185.845C484.898 185.626 485.989 185.208 487.12 185.026C489.69 184.613 492.274 184.285 494.854 183.933C496.613 183.693 498.384 183.533 500.128 183.217C501.314 183.003 502.467 182.593 503.62 182.225C503.708 182.197 503.785 181.684 503.688 181.597C502.553 180.584 501.403 179.586 500.22 178.63C495.65 174.937 491.057 171.272 486.491 167.575C482.796 164.584 479.251 161.387 475.403 158.609C472.526 156.532 470.047 156.913 468.606 159.097L468.214 159.684C466.77 161.822 465.215 163.782 462.907 165.075C462.692 165.195 462.56 165.461 462.389 165.658C462.662 165.813 462.954 166.125 463.202 166.094C464.303 165.955 465.385 165.622 466.485 165.555C467.045 165.521 467.644 165.873 468.185 166.134C468.25 166.165 468.164 166.799 467.982 167.013C464.405 171.221 459.699 173.639 454.552 175.279C452.421 175.958 450.194 176.328 448.034 176.926C446.351 177.392 444.73 178.088 443.038 178.511C441.126 178.99 439.17 179.298 437.226 179.642C435.912 179.874 434.579 180.003 433.267 180.244C431.574 180.554 429.898 180.959 428.204 181.266C427.14 181.459 426.06 181.59 424.981 181.671C423.132 181.81 421.279 181.95 419.426 181.977C416.989 182.013 414.55 181.951 412.113 181.906C411.741 181.899 411.373 181.758 411.003 181.679C411.503 181.533 411.994 181.328 412.504 181.256C413.329 181.14 414.168 181.129 414.997 181.04C416.179 180.913 417.355 180.732 418.538 180.619C419.834 180.495 421.146 180.498 422.431 180.312C424.392 180.027 426.33 179.58 428.29 179.288C430.008 179.031 431.755 178.963 433.467 178.679C434.916 178.439 436.322 177.951 437.767 177.675C439.522 177.339 441.322 177.212 443.059 176.809C445.057 176.345 447.032 175.745 448.975 175.083C451.262 174.302 453.502 173.386 455.766 172.537C458.263 171.601 460.773 170.699 463.255 169.724C463.786 169.515 464.221 169.059 464.7 168.717C464.002 168.412 463.315 168.071 462.596 167.826C462.412 167.763 462.133 168.028 461.885 168.09C460.884 168.341 459.888 168.697 458.872 168.772C457.972 168.838 456.942 168.642 457 167.366C457.023 166.859 457.246 166.034 457.576 165.918C462.139 164.322 465.321 161.096 467.978 157.248C468.148 157.001 467.968 156.141 467.796 156.09C466.726 155.773 465.62 155.501 464.51 155.414C463.078 155.301 461.629 155.414 460.19 155.358C458.423 155.288 456.626 154.879 454.904 155.1ZM371.696 106.398L371.778 107.643C371.95 110.426 372.655 148.536 372.86 150.832C372.899 151.267 373.606 152.086 373.999 152.142C375.34 152.333 384.052 154.355 384.052 150.832C383.94 145.618 384.183 110.078 384.005 110.03C382.337 109.58 372.085 106.48 371.696 106.398ZM100.412 115.653C96.7241 116.708 93.0645 117.954 89.5389 119.462C85.4932 121.191 81.5767 123.234 77.6582 125.247C73.0821 127.597 68.5683 130.069 64.0192 132.472C62.6885 133.175 61.3448 133.857 59.9799 134.491C57.7576 135.522 55.5112 136.501 53.2802 137.514C53.075 137.607 52.9077 137.783 52.7228 137.921C52.9324 138.024 53.1338 138.192 53.3529 138.22L55.2737 138.465C56.5546 138.626 57.8365 138.778 59.1224 138.877C59.8436 138.932 60.5896 138.598 61.3204 138.614C63.4261 138.663 65.5303 138.792 67.6341 138.907C68.3909 138.948 69.1443 139.047 69.9002 139.109C71.8515 139.267 73.8009 139.471 75.7555 139.561C78.1566 139.672 80.5622 139.686 83.1339 139.91C85.2715 139.798 87.4132 139.547 89.5457 139.609C92.2568 139.689 94.9571 140.103 97.6685 140.215C99.1827 140.278 100.715 139.884 102.23 139.937C106.508 140.085 110.779 140.477 115.056 140.547C118.758 140.607 122.465 140.286 126.171 140.262C133.785 140.211 141.4 140.226 149.015 140.262C150.761 140.27 152.506 140.482 154.252 140.567C154.455 140.577 154.669 140.374 154.877 140.27C154.74 140.15 154.617 140.007 154.464 139.914C149.682 136.997 144.893 134.092 140.113 131.172C136.05 128.69 132.064 126.07 127.939 123.699L126.559 122.919C122.166 120.478 118.321 116.959 113.208 115.889C111.21 115.471 109.206 114.814 107.197 114.784C104.934 114.749 102.586 115.03 100.412 115.653Z" fill="#00160A"/>
<path fill-rule="evenodd" clip-rule="evenodd" d="M136.815 94.966C139.394 91.3791 141.747 87.7635 144.416 84.399C148.691 79.0112 153.139 73.7592 157.586 68.5114C159.753 65.954 162.047 63.4996 164.351 61.0633C167.562 57.6693 170.674 54.1575 174.121 51.0175C179.677 45.9557 185.446 41.1246 191.174 36.2539C197.656 30.7426 204.777 26.1225 212.072 21.7971C216.037 19.4459 220.239 17.4787 224.402 15.4814C227.393 14.0467 230.485 12.8173 233.556 11.5545C236.572 10.3141 239.584 9.04918 242.662 7.97915C245.088 7.13578 247.594 6.49951 250.096 5.90411C252.745 5.27373 255.426 4.77145 258.104 4.26768C260.245 3.86478 262.395 3.50308 264.552 3.19764C266.613 2.90588 268.683 2.66533 270.756 2.48554C272.74 2.3135 274.734 2.14551 276.722 2.1602C279.868 2.18345 283.014 2.45341 286.159 2.44156C288.442 2.43296 290.683 2.4292 292.98 2.68665C295.266 2.94298 297.569 3.21295 299.866 3.40661C302.178 3.60167 304.419 3.95098 306.681 4.4426C308.743 4.89087 310.937 4.74886 312.989 5.22752C315.921 5.91165 318.768 6.95641 321.668 7.78762C324.677 8.65011 327.744 9.32923 330.715 10.3029C332.773 10.977 334.689 12.0708 336.709 12.8743C338.858 13.7294 341.125 14.3147 343.215 15.2883C345.748 16.4689 348.158 17.9197 350.608 19.2769C357.025 22.8313 363.232 26.71 368.992 31.2713C370.812 32.7127 372.6 34.1948 374.396 35.6667C374.654 35.8787 374.961 36.0984 375.092 36.3848C375.323 36.8872 375.435 37.444 375.598 37.978C375.169 37.7373 374.687 37.5592 374.319 37.2466C368.763 32.522 362.629 28.6196 356.443 24.8115C353.574 23.0458 350.526 21.5679 347.531 20.0128C345.941 19.1871 344.324 18.3962 342.663 17.7281C339.038 16.2694 335.382 14.8863 331.729 13.4973C329.067 12.4852 326.416 11.4326 323.713 10.5446C320.713 9.55924 317.679 8.65613 314.62 7.87457C311.95 7.19245 309.239 6.64273 306.519 6.20028C304.798 5.9205 303.016 6.03867 301.286 5.80358C299.874 5.6118 298.513 5.0052 297.101 4.86487C295.4 4.6957 293.668 4.85016 291.95 4.8094C291.434 4.79715 290.923 4.50938 290.409 4.50391C287.478 4.47273 284.545 4.52212 281.615 4.47352C280.316 4.45197 279.017 4.15542 277.722 4.18134C276.215 4.21151 274.715 4.49669 273.206 4.60056C271.52 4.71665 269.826 4.71052 268.141 4.83906C266.898 4.93394 265.656 5.11519 264.428 5.33739C262.653 5.65849 260.898 6.08653 259.122 6.40229C257.781 6.64091 256.406 6.70345 255.072 6.97433C253.432 7.30733 251.809 7.73566 250.199 8.19531C248.216 8.7614 246.26 9.41737 244.283 10.0062C242.569 10.517 240.789 10.8504 239.132 11.5024C233.803 13.5997 228.444 15.6441 223.234 18.0124C215.664 21.4541 208.49 25.6572 201.654 30.39C197.358 33.3642 193.208 36.5535 189.05 39.7228C180.722 46.0719 173.37 53.4944 166.135 61.0145C162.439 64.8563 159.058 69.0111 155.663 73.1295C152.209 77.319 148.834 81.5797 145.567 85.9161C142.306 90.2442 139.14 94.6493 136.084 99.1241C133.387 103.072 130.903 107.165 128.309 111.184C128.192 111.366 127.924 111.452 127.726 111.583C127.76 111.392 127.749 111.177 127.835 111.013C129.569 107.698 131.267 104.363 133.073 101.087C134.207 99.0279 135.506 97.0592 136.815 94.966Z" fill="#00160A"/>
<path fill-rule="evenodd" clip-rule="evenodd" d="M460.668 52.5416C458.556 53.4377 456.645 54.4168 454.66 55.2125C450.652 56.8194 446.682 58.5043 442.49 59.6572C439.814 60.3933 437.189 61.0963 434.404 61.3311C432.451 61.4957 430.547 62.4684 428.609 62.5124C425.921 62.5734 423.712 63.6362 421.606 65.0047C419.645 66.2792 417.878 67.8481 415.959 69.1926C415.269 69.6759 414.411 70.0469 413.584 70.1775C412.356 70.3716 411.086 70.2951 409.835 70.3539C407.641 70.457 405.447 70.6612 403.254 70.6634C401.058 70.6655 398.862 70.4708 396.667 70.3663C396.333 70.3504 395.994 70.3197 395.665 70.3574C393.814 70.569 391.937 70.6708 390.122 71.056C387.846 71.5387 385.615 72.2367 383.377 72.8839C381.362 73.4663 379.274 73.9047 377.379 74.763C373.791 76.3892 370.319 78.2725 366.795 80.0422C366.539 80.1706 366.256 80.2445 365.986 80.3437C366.131 80.1457 366.249 79.9186 366.425 79.7541C368.113 78.182 369.616 76.2954 371.553 75.1362C374.115 73.6027 376.964 72.4803 379.796 71.4847C382.028 70.7001 384.415 70.3436 386.745 69.8541C388.816 69.419 390.89 68.9684 392.986 68.6955C395.494 68.3687 398.023 68.1096 400.549 68.0346C402.626 67.973 404.729 68.4474 406.789 68.2823C409.814 68.0398 412.84 67.5741 415.803 66.9211C416.906 66.6779 418.126 65.8459 418.781 64.9202C420.081 63.0821 421.892 61.9294 423.789 61.1569C425.518 60.4526 427.569 60.5476 429.475 60.2667C431.249 60.0054 433.021 59.7296 434.788 59.4294C436.302 59.1723 437.854 59.0159 439.306 58.5547C441.232 57.9428 443.061 57.0318 444.965 56.3405C445.969 55.9762 447.099 55.937 448.074 55.5223C450.62 54.4394 453.095 53.1897 455.633 52.0845C457.73 51.171 459.868 50.3507 462.001 49.5215C465.363 48.2144 468.692 46.8011 472.119 45.6933C474.168 45.0311 476.381 44.887 478.512 44.4696C480.022 44.1737 481.508 43.6206 483.026 43.527C484.759 43.4201 486.52 43.6539 488.262 43.8181C489.626 43.9467 490.979 44.1894 492.336 44.3923C493.03 44.4961 492.965 44.8458 492.463 45.0889C490.928 45.8317 489.388 46.3516 487.578 46.2129C485.74 46.0719 483.863 46.3433 482.01 46.503C479.913 46.6837 477.795 46.7986 475.738 47.2057C473.737 47.6018 471.781 48.2666 469.846 48.9329C467.873 49.612 465.947 50.4266 464.008 51.2014C462.943 51.6274 461.893 52.0936 460.668 52.5416Z" fill="#00160A"/>
<path fill-rule="evenodd" clip-rule="evenodd" d="M461.76 246.349C462.596 247.857 463.76 249.221 463.974 250.722C464.162 252.031 464.713 253.646 463.415 255.005C462.087 256.394 461.023 258.032 459.819 259.542C457.563 262.373 454.486 263.392 450.996 263.585C448.267 263.737 445.548 264.053 442.82 264.233C440.388 264.393 437.95 264.471 435.515 264.578C432.856 264.695 430.197 264.87 427.538 264.891C425.794 264.905 424.043 264.544 422.305 264.61C418.814 264.742 415.681 263.798 413.469 261.132C411.437 258.683 410.617 255.916 411.367 252.414C412.746 245.969 416.53 241.297 421.167 237.107C422.595 235.816 424.325 234.808 426.038 233.899C428.236 232.733 430.469 231.289 432.843 230.886C436.098 230.333 439.291 229.515 442.854 230.142C448.55 231.144 452.699 234.013 456.074 238.351C458.057 240.899 459.816 243.621 461.76 246.349ZM461.844 249.458C458.854 244.284 455.857 239.056 451.013 235.384C449.01 233.867 446.537 232.748 444.105 232.086C441.873 231.478 439.483 231.656 437.044 232.092C434.06 232.626 431.181 233.274 428.434 234.494C424.523 236.23 421.221 238.847 418.508 242.102C414.555 246.845 411.326 251.845 413.754 258.542C414.666 261.057 417.875 263.049 420.575 262.613C422.204 262.35 423.915 262.552 425.588 262.609C427.003 262.658 428.421 262.935 429.827 262.869C432.258 262.754 434.675 262.344 437.106 262.254C440.142 262.141 443.186 262.227 446.227 262.227C447.31 262.227 448.419 262.38 449.468 262.193C451.301 261.866 453.205 261.576 454.887 260.834C459.036 259.005 463.555 255.326 461.844 249.458Z" fill="#00160A"/>
<path fill-rule="evenodd" clip-rule="evenodd" d="M204.022 256.598C205.649 254.636 207.374 252.875 208.688 250.849C210.353 248.281 210.497 245.365 210.136 242.315C209.819 239.647 210.824 237.244 212.647 235.171C214.687 232.852 217.379 231.62 220.108 230.464C222.561 229.425 225.031 230.23 227.296 231.107C228.333 231.509 229.188 232.793 229.774 233.868C231.371 236.802 232.186 240.049 233.286 243.186C234.153 245.654 233.439 247.62 232.299 249.331C231.191 250.992 229.417 252.313 227.71 253.442C225.598 254.84 223.34 256.112 220.984 257.025C218.462 258.002 215.756 258.512 213.123 259.195C212.089 259.464 211.043 259.713 209.986 259.854C209.198 259.959 208.383 259.844 207.582 259.88C205.061 259.994 202.543 260.174 200.022 260.249C198.035 260.308 196.045 260.25 194.056 260.241C191.934 260.232 189.811 260.173 187.691 260.224C185.554 260.275 183.42 260.439 181.284 260.543C180.838 260.565 180.387 260.521 179.942 260.556C179.665 260.578 179.395 260.693 179.122 260.766C179.347 260.469 179.513 260.01 179.807 259.901C181.595 259.239 183.417 258.681 185.369 258.866C185.424 258.871 185.481 258.87 185.537 258.866C187.883 258.677 190.229 258.472 192.577 258.306C193.621 258.233 194.67 258.226 195.717 258.209C196.856 258.192 197.997 258.179 199.136 258.201C199.959 258.217 200.862 258.53 201.584 258.283C202.45 257.986 203.16 257.236 204.022 256.598ZM212.507 239.713C212.487 240.925 212.499 242.139 212.441 243.35C212.357 245.072 212.607 246.936 212.028 248.482C210.829 251.685 208.872 254.508 206.398 256.931C206.026 257.295 205.784 257.792 205.483 258.227C206.076 258.328 206.671 258.519 207.262 258.507C207.964 258.494 208.677 258.359 209.362 258.185C211.453 257.652 213.602 257.252 215.602 256.477C219.612 254.923 223.581 253.246 227.482 251.437C229.564 250.471 231.051 248.761 231.121 246.316C231.163 244.868 230.917 243.409 230.691 241.952C230.302 239.438 229.151 237.361 228.136 235.163C227.401 233.569 225.962 232.569 224.453 232.422C222.676 232.249 220.74 232.59 219.025 233.163C215.92 234.199 213.681 236.312 212.507 239.713Z" fill="#00160A"/>
<path fill-rule="evenodd" clip-rule="evenodd" d="M362.798 79.5084C361.929 76.4703 363.56 74.2051 365.089 72.0754C368.483 67.3487 373.273 64.3389 378.481 61.9652C380.739 60.9357 383.022 59.9131 385.381 59.1615C388.215 58.2584 391.143 57.6486 394.03 56.909C394.433 56.8055 394.828 56.6194 395.235 56.587C396.331 56.4998 395.852 56.08 395.438 55.7006C392.924 53.3985 390.403 51.1039 387.88 48.8105C386.743 47.7767 385.582 46.7685 384.467 45.7117C384.127 45.3893 383.818 44.9769 383.651 44.5453C383.491 44.1348 383.536 43.6454 383.49 43.1907C383.912 43.3499 384.435 43.4008 384.741 43.6848C388.544 47.2155 392.312 50.7836 396.1 54.3317C396.572 54.7738 397.385 55.596 397.551 55.4883C398.199 55.0677 398.902 54.4232 399.123 53.7173C399.646 52.0515 399.82 50.279 400.29 48.593C401.147 45.5212 403.533 43.783 406.198 42.4915C409.47 40.9059 412.829 39.4903 416.194 38.1069C420.428 36.3659 424.714 34.7511 428.963 33.0461C432.924 31.4569 436.791 29.5844 440.848 28.3067C442.832 27.6818 445.152 28.1225 447.321 28.0962C447.4 28.0952 447.482 28.2556 447.563 28.3408C447.42 28.455 447.295 28.6209 447.132 28.6757C442.79 30.1414 438.418 31.524 434.107 33.0764C431.133 34.1473 428.256 35.4862 425.308 36.6327C424.076 37.1119 422.723 37.2903 421.507 37.8021C418.962 38.8736 416.488 40.1117 413.954 41.212C412.09 42.0214 410.129 42.6176 408.3 43.4939C405.823 44.6809 403.224 45.879 402.41 48.8514C402.106 49.9584 402.534 51.3044 402.114 52.3312C401.529 53.7629 400.684 55.2443 399.553 56.2645C397.225 58.3651 394.248 59.2623 391.217 59.95C389.372 60.3687 387.586 61.079 385.73 61.4147C381.988 62.0914 378.551 63.5595 375.253 65.3357C370.701 67.7879 367.113 71.3133 364.638 75.8692C363.967 77.1046 363.686 78.5512 363.21 79.895C363.159 80.0391 362.995 80.1433 362.884 80.266C362.883 80.0415 362.883 79.8169 362.798 79.5084Z" fill="#00160A"/>
<path fill-rule="evenodd" clip-rule="evenodd" d="M320.206 191.324C317.657 191.212 315.276 191.001 312.896 191.015C310.452 191.03 308.073 190.804 305.651 190.417C303.66 190.099 301.708 189.986 299.87 189.016C298.927 188.518 298.586 188.048 298.647 186.924C298.738 185.245 298.364 183.546 298.386 181.858C298.441 177.577 299.495 173.615 302.8 170.629C304.351 169.227 306.369 168.737 308.314 167.996C311.365 166.835 314.01 168.164 316.655 168.654C319.299 169.143 321.71 170.971 324.177 172.299C326.115 173.341 328.191 174.277 329.821 175.702C331.261 176.96 332.33 178.74 333.259 180.455C333.97 181.769 334.542 183.339 334.553 184.8C334.564 186.052 333.906 187.46 333.162 188.535C331.891 190.372 329.883 190.846 327.713 190.654C327.491 190.635 327.263 190.633 327.041 190.655C324.818 190.874 322.596 191.1 320.206 191.324ZM331.127 184.939C331.502 184.082 332.356 183.083 332.152 182.398C331.734 180.988 331.04 179.393 329.948 178.495C325.153 174.548 320.05 171.138 313.756 169.859C310.426 169.183 307.411 169.579 304.493 171.167C302.327 172.346 302.146 174.147 304.014 175.632C305.021 176.433 306.03 177.233 307.06 178.005C311.439 181.286 316.294 183.602 321.598 184.913C323.602 185.409 325.671 185.758 327.728 185.886C328.785 185.953 329.881 185.387 331.127 184.939ZM330.119 188.635C330.586 188.207 331.054 187.778 331.522 187.35C330.909 187.364 330.295 187.36 329.683 187.401C329.488 187.415 329.293 187.63 329.111 187.614C326.868 187.409 324.609 187.295 322.394 186.92C320.533 186.605 318.635 186.185 316.914 185.439C314.641 184.454 312.487 183.171 310.352 181.899C307.508 180.205 304.583 178.586 302.698 175.687C302.476 175.347 302.062 175.131 301.737 174.858C301.509 175.232 301.165 175.579 301.072 175.984C300.688 177.663 300.34 179.353 300.058 181.052C299.872 182.169 299.718 183.309 299.73 184.437C299.752 186.382 301.129 188.209 302.527 188.295C304.664 188.425 306.876 188.217 308.923 188.708C311.881 189.418 314.829 189.274 317.787 189.284C319.867 189.292 321.947 189.064 324.029 188.977C326.002 188.895 327.977 188.859 330.119 188.635Z" fill="#00160A"/>
<path fill-rule="evenodd" clip-rule="evenodd" d="M359.102 77.8282C358.912 76.9663 358.698 76.1849 358.723 75.4112C358.774 73.8145 358.802 72.1928 359.104 70.6326C360.249 64.7185 364.478 61.0065 368.71 57.2529C372.269 54.0968 375.94 51.0064 378.109 46.5856C378.954 44.8632 378.84 43.1712 378.794 41.3159C378.685 36.9094 376.269 33.8259 373.251 31.2821C370.156 28.6726 366.641 26.544 363.228 24.3326C358.961 21.5687 355.332 18.2714 353.016 13.6394C351.629 10.8665 352.319 5.35931 354.609 3.24013C355.163 2.72727 356.041 2.32474 356.778 2.31233C357.623 2.29809 358.034 3.05647 357.834 3.95896C357.793 4.14582 357.7 4.42611 357.566 4.47164C355.749 5.08728 353.98 9.74109 355.223 11.5045C356.122 12.7798 356.446 14.5247 357.488 15.6205C359.546 17.7837 361.877 19.7007 364.182 21.6133C368.041 24.814 372.08 27.8057 375.831 31.125C378.638 33.6085 380.65 36.8545 381.449 40.5015C381.853 42.344 381.491 44.5182 380.612 46.4064C378.825 50.245 376.036 53.2079 372.836 55.9459C369.049 59.1856 364.86 62.1491 362.451 66.6728C361.369 68.7032 360.638 71.0293 360.287 73.3044C360.013 75.0758 360.588 76.9749 360.749 78.8205C360.772 79.0808 360.583 79.3596 360.492 79.6298C360.281 79.4687 360.014 79.3459 359.87 79.1382C359.604 78.7559 359.41 78.3236 359.102 77.8282Z" fill="#00160A"/>
<path fill-rule="evenodd" clip-rule="evenodd" d="M542.072 187.039C541.829 188.627 541.824 190.168 541.473 191.625C540.947 193.81 540.294 195.981 539.479 198.075C538.532 200.51 537.424 202.89 536.251 205.227C535.478 206.767 534.517 208.221 533.537 209.642C533.192 210.142 532.535 210.425 532.026 210.815C530.941 211.645 530.669 210.322 530.676 210.026C530.732 207.341 530.593 204.66 531.402 201.996C531.992 200.05 531.943 197.917 532.284 195.885C532.513 194.516 532.952 193.183 533.247 191.824C533.69 189.785 534.066 187.731 534.514 185.693C535.277 182.222 536.083 178.784 539.52 176.779C540.208 176.377 540.527 176.379 541.22 176.83C542.782 177.847 543.441 179.02 543.029 180.921C542.601 182.903 542.436 184.942 542.072 187.039ZM541.316 184.099C541.394 182.565 541.528 181.03 541.514 179.497C541.51 179.069 541.165 178.49 540.802 178.269C540.526 178.102 539.802 178.245 539.573 178.508C538.848 179.342 538.1 180.225 537.649 181.22C536.267 184.271 535.475 187.459 535.168 190.84C534.917 193.605 534.03 196.312 533.427 199.045C533.253 199.831 533.054 200.614 532.921 201.407C532.567 203.521 532.237 205.639 531.912 207.758C531.845 208.19 531.839 208.631 531.804 209.068C532.287 208.765 533.012 208.575 533.213 208.141C534.739 204.845 536.255 201.538 537.589 198.161C538.533 195.771 539.267 193.289 539.937 190.806C540.257 189.622 540.12 188.322 540.358 187.108C540.539 186.19 540.987 185.324 541.316 184.099Z" fill="#00160A"/>
<path fill-rule="evenodd" clip-rule="evenodd" d="M134.043 263.907C132.829 263.683 131.79 263.415 130.735 263.245C129.097 262.981 127.428 262.879 125.81 262.533C123.849 262.114 121.913 261.562 119.993 260.978C118.257 260.449 116.556 259.802 114.847 259.189C114.786 259.167 114.738 258.858 114.784 258.826C115.164 258.562 115.547 258.168 115.966 258.118C119.421 257.698 122.339 259.692 125.569 260.332C128.258 260.864 130.888 261.704 133.583 262.186C135.404 262.511 137.296 262.421 139.152 262.576C140.012 262.648 140.861 262.853 141.713 263.01C143.933 263.417 146.141 263.919 148.375 264.216C150.217 264.461 152.103 264.368 153.944 264.611C155.352 264.798 156.73 265.246 158.106 265.632C160.779 266.381 163.443 267.167 166.109 267.943C166.275 267.991 166.427 268.086 166.586 268.159C166.434 268.198 166.279 268.281 166.131 268.269C164.529 268.133 162.921 268.031 161.328 267.823C159.449 267.578 157.584 267.222 155.709 266.945C154.712 266.798 153.706 266.711 152.703 266.606C150.5 266.376 148.286 266.226 146.097 265.9C144.19 265.616 142.326 265.044 140.418 264.766C138.486 264.485 136.524 264.415 134.577 264.23C134.446 264.218 134.333 264.019 134.043 263.907Z" fill="#00160A"/>
<path fill-rule="evenodd" clip-rule="evenodd" d="M345.42 100.762C348.274 99.7493 354.402 104.422 352.412 109.213C350.113 114.745 342.982 113.691 341.09 111.3C337.538 106.809 339.991 102.69 345.42 100.762ZM342.105 105.057C338.529 108.479 344.524 112.477 347.185 111.583C354.238 109.212 349.775 97.7175 342.105 105.057Z" fill="#00160A"/>
<path fill-rule="evenodd" clip-rule="evenodd" d="M542.576 194.936C544.293 191.792 545.676 188.547 548.69 186.492C549.052 186.245 549.778 185.934 549.918 186.073C550.305 186.458 550.687 187.063 550.691 187.584C550.731 192.447 547.566 196.076 545.668 200.183C544.666 202.35 543.237 204.321 541.981 206.368C541.73 206.777 541.42 207.16 541.083 207.501C540.768 207.82 540.11 208.346 540.066 208.304C539.537 207.789 538.868 207.248 538.691 206.59C538.514 205.932 538.769 205.111 538.979 204.404C539.729 201.878 540.504 199.358 541.353 196.864C541.58 196.197 542.104 195.632 542.576 194.936ZM540.812 201.741C540.588 202.972 540.358 204.203 540.143 205.436C540.09 205.741 540.086 206.055 540.059 206.365C540.366 206.098 540.781 205.89 540.964 205.556C543.329 201.226 545.71 196.902 547.971 192.518C548.592 191.314 548.854 189.919 549.221 188.595C549.27 188.417 549.006 188.005 548.813 187.947C548.598 187.882 548.155 188.022 548.058 188.204C545.679 192.649 543.332 197.113 540.812 201.741Z" fill="#00160A"/>
<path fill-rule="evenodd" clip-rule="evenodd" d="M358.145 85.3241C358.145 80.266 369.094 84.3248 370.022 85.7905C370.254 86.1574 370.73 100.091 369.916 98.1313C369.046 95.9388 369.648 87.1001 368.696 86.492C365.618 84.9711 361.895 84.1856 360.431 84.7033C357.902 85.2959 360.594 96.0058 359 94.1919C358.907 93.8753 358.823 93.556 358.72 93.2427C358.604 92.8902 358.145 87.7762 358.145 85.3241Z" fill="#00160A"/>
<path fill-rule="evenodd" clip-rule="evenodd" d="M405.558 66.319C404.811 66.1879 404.013 66.253 403.69 65.8924C402.146 64.1699 400.727 62.335 399.274 60.5319C399.043 60.2452 398.864 59.9169 398.66 59.6078C399.351 59.5083 400.301 59.0764 400.683 59.3738C401.699 60.1653 402.567 61.2036 403.315 62.2692C404.215 63.5515 404.931 64.9633 405.558 66.319Z" fill="#00160A"/>
<path fill-rule="evenodd" clip-rule="evenodd" d="M364.562 86.2865C364.601 85.8561 365.664 86.8129 365.692 87.1573C365.844 89.084 366.588 97.5815 365.897 96.6862C365.505 95.8588 365.147 93.5612 364.975 92.6534C364.803 91.7456 364.562 89.1265 364.562 86.2865Z" fill="#00160A"/>
<path fill-rule="evenodd" clip-rule="evenodd" d="M381.148 126.169C381.125 128.118 381.192 130.067 381.148 132.016C381.121 133.168 378.03 133.626 376.67 132.939C375.307 132.25 375.733 126.965 375.657 126.169C375.418 123.67 375.32 121.151 374.938 118.676C374.686 117.046 374.52 115.083 375.296 114.833C378.116 113.921 380.623 117.433 380.499 117.557C380.823 120.083 381.151 125.892 381.148 126.169ZM376.996 120.589C377.108 121.046 377.251 129.007 377.446 131.846C377.479 132.317 379.299 132.317 379.694 131.492C380.072 129.217 379.283 121.085 379.299 118.371C379.302 117.936 378.753 117.315 378.304 117.094C376.824 116.363 376.558 116.569 376.67 118.21C376.717 118.895 376.884 119.572 376.996 120.589Z" fill="#00160A"/>
<path fill-rule="evenodd" clip-rule="evenodd" d="M282.143 166.724C282.589 166.552 283.091 166.774 283.263 167.22C283.436 167.667 283.214 168.169 282.767 168.341C262.921 176.008 262.921 191.016 283.108 214.155C301.159 234.846 334.913 253.987 384.363 271.533C384.814 271.693 385.05 272.188 384.89 272.639C384.73 273.09 384.234 273.326 383.783 273.166C334.078 255.53 300.088 236.255 281.802 215.295C260.931 191.372 260.931 174.918 282.143 166.724Z" fill="#E7EAEE"/>
<path d="M315.65 267.987C315.807 267.534 316.3 267.294 316.752 267.451C317.205 267.607 317.445 268.101 317.288 268.553C313.436 279.692 306.402 288.973 296.205 296.383C286.043 303.767 269.252 310.451 245.813 316.464C245.349 316.583 244.877 316.303 244.758 315.84C244.639 315.376 244.918 314.904 245.382 314.785L247.012 314.363C269.406 308.51 285.471 302.04 295.186 294.981C305.101 287.776 311.916 278.783 315.65 267.987Z" fill="#09EEE3"/>
<path fill-rule="evenodd" clip-rule="evenodd" d="M316.613 277.474C316.722 277.008 317.188 276.718 317.654 276.827C318.12 276.935 318.41 277.401 318.301 277.868C314.825 292.765 307.428 303.426 296.121 309.788C284.95 316.072 272.911 320.347 260.008 322.61C259.536 322.693 259.087 322.378 259.004 321.907C258.922 321.435 259.237 320.986 259.708 320.903C272.419 318.673 284.272 314.465 295.271 308.277C306.132 302.166 313.243 291.919 316.613 277.474Z" fill="#E7EAEE"/>
<path fill-rule="evenodd" clip-rule="evenodd" d="M370.854 276.601C370.966 276.135 371.434 275.849 371.899 275.961C389.018 280.083 404.173 282.384 417.361 282.867L418.35 282.9C431.523 283.298 450.552 282.246 475.424 279.742C475.9 279.694 476.325 280.041 476.373 280.517C476.421 280.994 476.074 281.418 475.597 281.466L471.854 281.837C448.12 284.141 429.938 285.062 417.297 284.599C403.985 284.112 388.718 281.794 371.493 277.646C371.028 277.534 370.742 277.066 370.854 276.601Z" fill="#E7EAEE"/>
<path fill-rule="evenodd" clip-rule="evenodd" d="M244.195 174.677C244.587 174.402 245.127 174.496 245.403 174.888C245.678 175.28 245.583 175.82 245.192 176.095C240.375 179.481 237.848 182.903 237.528 186.339C237.205 189.816 239.148 194.611 243.416 200.662C243.692 201.053 243.598 201.594 243.207 201.87C242.816 202.146 242.275 202.052 241.999 201.661C237.516 195.303 235.432 190.162 235.802 186.178C236.177 182.153 239.002 178.327 244.195 174.677Z" fill="#00160A"/>
<path fill-rule="evenodd" clip-rule="evenodd" d="M246.061 178.655C246.338 178.46 246.721 178.527 246.915 178.804C247.11 179.081 247.043 179.463 246.766 179.658C243.358 182.053 241.571 184.474 241.344 186.905C241.115 189.365 242.491 192.757 245.51 197.039C245.705 197.315 245.639 197.698 245.362 197.893C245.085 198.088 244.703 198.022 244.507 197.745C241.336 193.247 239.861 189.61 240.123 186.791C240.388 183.943 242.387 181.237 246.061 178.655Z" fill="#00160A"/>
</svg>
